<?xml version="1.0" encoding="UTF-8" standalone="no"?>
<!DOCTYPE svg PUBLIC "-//W3C//DTD SVG 1.1//EN"
 "http://www.w3.org/Graphics/SVG/1.1/DTD/svg11.dtd">
<!-- Generated by graphviz version 2.40.1 (20161225.0304)
 -->
<!-- Title: state transitions Pages: 1 -->
<svg width="1183pt" height="922pt"
 viewBox="0.00 0.00 1182.86 922.00" xmlns="http://www.w3.org/2000/svg" xmlns:xlink="http://www.w3.org/1999/xlink">
<g id="graph0" class="graph" transform="scale(1 1) rotate(0) translate(4 918)">
<title>state transitions</title>
<polygon fill="#ffffff" stroke="transparent" points="-4,4 -4,-918 1178.857,-918 1178.857,4 -4,4"/>
<g id="clust1" class="cluster state regular">
<title>cluster_next_state</title>
<path fill="none" stroke="#000000" stroke-width="2" d="M20,-8C20,-8 1093,-8 1093,-8 1099,-8 1105,-14 1105,-20 1105,-20 1105,-894 1105,-894 1105,-900 1099,-906 1093,-906 1093,-906 20,-906 20,-906 14,-906 8,-900 8,-894 8,-894 8,-20 8,-20 8,-14 14,-8 20,-8"/>
<text text-anchor="start" x="529.3208" y="-887.2" font-family="Helvetica,sans-Serif" font-size="12.00" fill="#000000">next_state</text>
</g>
<!-- next_state -->
<!-- Zero -->
<g id="node2" class="node state regular">
<title>Zero</title>
<polygon fill="#ffffff" fill-opacity="0.003922" stroke="transparent" stroke-width="2" points="579,-850 523,-850 523,-814 579,-814 579,-850"/>
<text text-anchor="start" x="538.6664" y="-828.2" font-family="Helvetica,sans-Serif" font-size="12.00" fill="#000000">Zero</text>
<path fill="none" stroke="#000000" stroke-width="2" d="M535.3333,-815C535.3333,-815 566.6667,-815 566.6667,-815 572.3333,-815 578,-820.6667 578,-826.3333 578,-826.3333 578,-837.6667 578,-837.6667 578,-843.3333 572.3333,-849 566.6667,-849 566.6667,-849 535.3333,-849 535.3333,-849 529.6667,-849 524,-843.3333 524,-837.6667 524,-837.6667 524,-826.3333 524,-826.3333 524,-820.6667 529.6667,-815 535.3333,-815"/>
</g>
<!-- Zero&#45;&gt;Zero -->
<g id="edge7" class="edge transition">
<title>Zero&#45;&gt;Zero</title>
<path fill="none" stroke="#000000" d="M579.0183,-840.1649C590.888,-840.7802 601,-838.0586 601,-832 601,-827.8347 596.2205,-825.2467 589.3762,-824.2359"/>
<polygon fill="#000000" stroke="#000000" points="589.1461,-820.7244 579.0183,-823.8351 588.8754,-827.7192 589.1461,-820.7244"/>
<text text-anchor="start" x="601" y="-859" font-family="Helvetica,sans-Serif" font-size="10.00" fill="#000000">not (SFD = &#39;1&#39;) &#160;&#160;</text>
<text text-anchor="start" x="601" y="-847" font-family="Helvetica,sans-Serif" font-size="10.00" fill="#000000">not (SRD = &#39;1&#39;) &#160;&#160;</text>
<text text-anchor="start" x="601" y="-835" font-family="Helvetica,sans-Serif" font-size="10.00" fill="#000000">not (SFA = &#39;1&#39;) &#160;&#160;</text>
<text text-anchor="start" x="601" y="-823" font-family="Helvetica,sans-Serif" font-size="10.00" fill="#000000">not (SW = &#39;1&#39;) &#160;&#160;</text>
<text text-anchor="start" x="601" y="-811" font-family="Helvetica,sans-Serif" font-size="10.00" fill="#000000">not (ST &lt; &quot;0110010&quot;) &#160;&#160;</text>
<text text-anchor="start" x="601" y="-799" font-family="Helvetica,sans-Serif" font-size="10.00" fill="#000000">not (ST &gt; &quot;1000110&quot;) &#160;&#160;</text>
</g>
<!-- One -->
<g id="node3" class="node state regular">
<title>One</title>
<polygon fill="#ffffff" fill-opacity="0.003922" stroke="transparent" stroke-width="2" points="882,-672 826,-672 826,-636 882,-636 882,-672"/>
<text text-anchor="start" x="842.6618" y="-650.2" font-family="Helvetica,sans-Serif" font-size="12.00" fill="#000000">One</text>
<path fill="none" stroke="#000000" stroke-width="2" d="M838.3333,-637C838.3333,-637 869.6667,-637 869.6667,-637 875.3333,-637 881,-642.6667 881,-648.3333 881,-648.3333 881,-659.6667 881,-659.6667 881,-665.3333 875.3333,-671 869.6667,-671 869.6667,-671 838.3333,-671 838.3333,-671 832.6667,-671 827,-665.3333 827,-659.6667 827,-659.6667 827,-648.3333 827,-648.3333 827,-642.6667 832.6667,-637 838.3333,-637"/>
</g>
<!-- Zero&#45;&gt;One -->
<g id="edge1" class="edge transition">
<title>Zero&#45;&gt;One</title>
<path fill="none" stroke="#000000" d="M579.0207,-828.4863C610.5029,-823.5072 662.1451,-812.1624 700,-788 740.4249,-762.1972 734.9061,-738.2414 771.292,-707 785.2218,-695.0397 802.0624,-683.7659 816.9023,-674.7163"/>
<polygon fill="#000000" stroke="#000000" points="819.046,-677.5129 825.8397,-669.3828 815.4589,-671.5018 819.046,-677.5129"/>
<text text-anchor="start" x="771" y="-740" font-family="Helvetica,sans-Serif" font-size="10.00" fill="#000000">SFD = &#39;1&#39; &#160;&#160;</text>
</g>
<!-- Two -->
<g id="node4" class="node state regular">
<title>Two</title>
<polygon fill="#ffffff" fill-opacity="0.003922" stroke="transparent" stroke-width="2" points="600,-52 544,-52 544,-16 600,-16 600,-52"/>
<text text-anchor="start" x="560.6678" y="-30.2" font-family="Helvetica,sans-Serif" font-size="12.00" fill="#000000">Two</text>
<path fill="none" stroke="#000000" stroke-width="2" d="M556.3333,-17C556.3333,-17 587.6667,-17 587.6667,-17 593.3333,-17 599,-22.6667 599,-28.3333 599,-28.3333 599,-39.6667 599,-39.6667 599,-45.3333 593.3333,-51 587.6667,-51 587.6667,-51 556.3333,-51 556.3333,-51 550.6667,-51 545,-45.3333 545,-39.6667 545,-39.6667 545,-28.3333 545,-28.3333 545,-22.6667 550.6667,-17 556.3333,-17"/>
</g>
<!-- Zero&#45;&gt;Two -->
<g id="edge2" class="edge transition">
<title>Zero&#45;&gt;Two</title>
<path fill="none" stroke="#000000" d="M522.9184,-829.7075C451.8423,-823.8092 259.085,-807.2166 99,-788 70.9173,-784.629 59.1257,-795.285 36,-779 21.2079,-768.5835 17,-761.0917 17,-743 17,-743 17,-743 17,-431.5 17,-315.9444 17,-287.0556 17,-171.5 17,-171.5 17,-171.5 17,-75 17,-49.0655 407.5205,-37.7912 533.3987,-34.8307"/>
<polygon fill="#000000" stroke="#000000" points="533.7978,-38.3225 543.7145,-34.5929 533.6364,-31.3244 533.7978,-38.3225"/>
<text text-anchor="start" x="18" y="-295" font-family="Helvetica,sans-Serif" font-size="10.00" fill="#000000">SRD = &#39;1&#39; &#160;&#160;</text>
</g>
<!-- Three -->
<g id="node5" class="node state regular">
<title>Three</title>
<polygon fill="#ffffff" fill-opacity="0.003922" stroke="transparent" stroke-width="2" points="679,-134 623,-134 623,-98 679,-98 679,-134"/>
<text text-anchor="start" x="635.331" y="-112.2" font-family="Helvetica,sans-Serif" font-size="12.00" fill="#000000">Three</text>
<path fill="none" stroke="#000000" stroke-width="2" d="M635.3333,-99C635.3333,-99 666.6667,-99 666.6667,-99 672.3333,-99 678,-104.6667 678,-110.3333 678,-110.3333 678,-121.6667 678,-121.6667 678,-127.3333 672.3333,-133 666.6667,-133 666.6667,-133 635.3333,-133 635.3333,-133 629.6667,-133 624,-127.3333 624,-121.6667 624,-121.6667 624,-110.3333 624,-110.3333 624,-104.6667 629.6667,-99 635.3333,-99"/>
</g>
<!-- Zero&#45;&gt;Three -->
<g id="edge3" class="edge transition">
<title>Zero&#45;&gt;Three</title>
<path fill="none" stroke="#000000" d="M579.263,-829.8004C659.7429,-823.3066 888.8991,-803.1527 960,-779 990.1707,-768.7511 1022,-774.8639 1022,-743 1022,-743 1022,-743 1022,-431.5 1022,-391.7446 1005.0213,-384.0992 983,-351 977.4186,-342.6108 971.5636,-343.425 968,-334 956.6826,-304.0681 950.5955,-288.853 968,-262 978.063,-246.474 991.1096,-255.9817 1006,-245 1015.7581,-237.8034 1024,-236.6249 1024,-224.5 1024,-224.5 1024,-224.5 1024,-157 1024,-126.6699 782.0727,-137.9427 752,-134 731.1393,-131.265 708.0256,-127.2216 689.1797,-123.6595"/>
<polygon fill="#000000" stroke="#000000" points="689.6708,-120.19 679.1902,-121.7415 688.3508,-127.0644 689.6708,-120.19"/>
<text text-anchor="start" x="1021" y="-384" font-family="Helvetica,sans-Serif" font-size="10.00" fill="#000000">SFA = &#39;1&#39; &#160;&#160;</text>
</g>
<!-- Four -->
<g id="node6" class="node state regular">
<title>Four</title>
<polygon fill="#ffffff" fill-opacity="0.003922" stroke="transparent" stroke-width="2" points="698,-216 642,-216 642,-180 698,-180 698,-216"/>
<text text-anchor="start" x="657.6664" y="-194.2" font-family="Helvetica,sans-Serif" font-size="12.00" fill="#000000">Four</text>
<path fill="none" stroke="#000000" stroke-width="2" d="M654.3333,-181C654.3333,-181 685.6667,-181 685.6667,-181 691.3333,-181 697,-186.6667 697,-192.3333 697,-192.3333 697,-203.6667 697,-203.6667 697,-209.3333 691.3333,-215 685.6667,-215 685.6667,-215 654.3333,-215 654.3333,-215 648.6667,-215 643,-209.3333 643,-203.6667 643,-203.6667 643,-192.3333 643,-192.3333 643,-186.6667 648.6667,-181 654.3333,-181"/>
</g>
<!-- Zero&#45;&gt;Four -->
<g id="edge4" class="edge transition">
<title>Zero&#45;&gt;Four</title>
<path fill="none" stroke="#000000" d="M579.2522,-827.4705C620.9268,-818.9982 694,-796.5129 694,-743 694,-743 694,-743 694,-520.5 694,-462.7875 640.6967,-312.2956 669,-262 676.1398,-249.3124 689.8602,-257.6876 697,-245 700.576,-238.6454 700.794,-234.6447 696.751,-225.3943"/>
<polygon fill="#000000" stroke="#000000" points="699.8259,-223.7126 692.3329,-216.2223 693.5195,-226.7505 699.8259,-223.7126"/>
<text text-anchor="start" x="693" y="-473" font-family="Helvetica,sans-Serif" font-size="10.00" fill="#000000">SW = &#39;1&#39; &#160;&#160;</text>
</g>
<!-- Five -->
<g id="node7" class="node state regular">
<title>Five</title>
<polygon fill="#ffffff" fill-opacity="0.003922" stroke="transparent" stroke-width="2" points="263,-316 207,-316 207,-280 263,-280 263,-316"/>
<text text-anchor="start" x="223.6678" y="-294.2" font-family="Helvetica,sans-Serif" font-size="12.00" fill="#000000">Five</text>
<path fill="none" stroke="#000000" stroke-width="2" d="M219.3333,-281C219.3333,-281 250.6667,-281 250.6667,-281 256.3333,-281 262,-286.6667 262,-292.3333 262,-292.3333 262,-303.6667 262,-303.6667 262,-309.3333 256.3333,-315 250.6667,-315 250.6667,-315 219.3333,-315 219.3333,-315 213.6667,-315 208,-309.3333 208,-303.6667 208,-303.6667 208,-292.3333 208,-292.3333 208,-286.6667 213.6667,-281 219.3333,-281"/>
</g>
<!-- Zero&#45;&gt;Five -->
<g id="edge5" class="edge transition">
<title>Zero&#45;&gt;Five</title>
<path fill="none" stroke="#000000" d="M522.9593,-829.6298C422.4258,-820.7621 86,-787.7447 86,-743 86,-743 86,-743 86,-609.5 86,-572.8887 87.3037,-561.8452 103.477,-529 130.7179,-473.6784 162.7495,-476.735 193,-423 210.4713,-391.9651 222.2183,-352.4893 228.7463,-326.2918"/>
<polygon fill="#000000" stroke="#000000" points="232.2195,-326.817 231.1486,-316.2765 225.4126,-325.1842 232.2195,-326.817"/>
<text text-anchor="start" x="103" y="-562" font-family="Helvetica,sans-Serif" font-size="10.00" fill="#000000">ST &lt; &quot;0110010&quot; &#160;&#160;</text>
</g>
<!-- Six -->
<g id="node8" class="node state regular">
<title>Six</title>
<polygon fill="#ffffff" fill-opacity="0.003922" stroke="transparent" stroke-width="2" points="285,-494 229,-494 229,-458 285,-458 285,-494"/>
<text text-anchor="start" x="248.6672" y="-472.2" font-family="Helvetica,sans-Serif" font-size="12.00" fill="#000000">Six</text>
<path fill="none" stroke="#000000" stroke-width="2" d="M241.3333,-459C241.3333,-459 272.6667,-459 272.6667,-459 278.3333,-459 284,-464.6667 284,-470.3333 284,-470.3333 284,-481.6667 284,-481.6667 284,-487.3333 278.3333,-493 272.6667,-493 272.6667,-493 241.3333,-493 241.3333,-493 235.6667,-493 230,-487.3333 230,-481.6667 230,-481.6667 230,-470.3333 230,-470.3333 230,-464.6667 235.6667,-459 241.3333,-459"/>
</g>
<!-- Zero&#45;&gt;Six -->
<g id="edge6" class="edge transition">
<title>Zero&#45;&gt;Six</title>
<path fill="none" stroke="#000000" d="M547.1387,-813.7346C537.3258,-772.0294 507.36,-669.4437 441,-618 427.4937,-607.5296 378.6022,-612.5427 366,-601 338.1187,-575.4625 364.2696,-548.9917 340,-520 328.2094,-505.9153 310.7286,-495.7074 294.8464,-488.6912"/>
<polygon fill="#000000" stroke="#000000" points="295.8086,-485.3022 285.2292,-484.7289 293.142,-491.7744 295.8086,-485.3022"/>
<text text-anchor="start" x="500" y="-651" font-family="Helvetica,sans-Serif" font-size="10.00" fill="#000000">ST &gt; &quot;1000110&quot; &#160;&#160;</text>
</g>
<!-- One&#45;&gt;Zero -->
<g id="edge14" class="edge transition">
<title>One&#45;&gt;Zero</title>
<path fill="none" stroke="#000000" d="M854.9556,-672.2797C855.3126,-699.6401 851.6455,-751.0115 822,-779 788.9114,-810.2392 655.8654,-824.2925 589.311,-829.4697"/>
<polygon fill="#000000" stroke="#000000" points="588.9361,-825.9878 579.2258,-830.2256 589.4594,-832.9683 588.9361,-825.9878"/>
<text text-anchor="start" x="853" y="-770" font-family="Helvetica,sans-Serif" font-size="10.00" fill="#000000">not (SRD = &#39;1&#39;) &#160;&#160;</text>
<text text-anchor="start" x="853" y="-758" font-family="Helvetica,sans-Serif" font-size="10.00" fill="#000000">not (SFA = &#39;1&#39;) &#160;&#160;</text>
<text text-anchor="start" x="853" y="-746" font-family="Helvetica,sans-Serif" font-size="10.00" fill="#000000">not (SW = &#39;1&#39;) &#160;&#160;</text>
<text text-anchor="start" x="853" y="-734" font-family="Helvetica,sans-Serif" font-size="10.00" fill="#000000">not (ST &lt; &quot;0110010&quot;) &#160;&#160;</text>
<text text-anchor="start" x="853" y="-722" font-family="Helvetica,sans-Serif" font-size="10.00" fill="#000000">not (ST &gt; &quot;1000110&quot;) &#160;&#160;</text>
<text text-anchor="start" x="853" y="-710" font-family="Helvetica,sans-Serif" font-size="10.00" fill="#000000">not (SFD = &#39;1&#39;) &#160;&#160;</text>
</g>
<!-- One&#45;&gt;One -->
<g id="edge13" class="edge transition">
<title>One&#45;&gt;One</title>
<path fill="none" stroke="#000000" d="M882.0183,-662.1649C893.888,-662.7802 904,-660.0586 904,-654 904,-649.8347 899.2205,-647.2467 892.3762,-646.2359"/>
<polygon fill="#000000" stroke="#000000" points="892.1461,-642.7244 882.0183,-645.8351 891.8754,-649.7192 892.1461,-642.7244"/>
<text text-anchor="start" x="904" y="-651" font-family="Helvetica,sans-Serif" font-size="10.00" fill="#000000">SFD = &#39;1&#39; &#160;&#160;</text>
</g>
<!-- One&#45;&gt;Two -->
<g id="edge8" class="edge transition">
<title>One&#45;&gt;Two</title>
<path fill="none" stroke="#000000" d="M882.1046,-642.9598C911.3734,-629.3977 953,-603.3656 953,-565 953,-565 953,-565 953,-431.5 953,-393.9024 939.9453,-386.2987 927,-351 924.1866,-343.3286 922.8011,-341.6759 920,-334 908.4841,-302.4425 916.7926,-289.1431 897,-262 889.3373,-251.4915 879.9154,-256.1268 873.182,-245 849.3718,-205.6539 859,-188.4895 859,-142.5 859,-142.5 859,-142.5 859,-75 859,-50.1832 688.6587,-39.2699 610.4397,-35.5668"/>
<polygon fill="#000000" stroke="#000000" points="610.1908,-32.0519 600.0413,-35.0914 609.871,-39.0446 610.1908,-32.0519"/>
<text text-anchor="start" x="873" y="-236" font-family="Helvetica,sans-Serif" font-size="10.00" fill="#000000">SRD = &#39;1&#39; &#160;&#160;</text>
</g>
<!-- One&#45;&gt;Three -->
<g id="edge9" class="edge transition">
<title>One&#45;&gt;Three</title>
<path fill="none" stroke="#000000" d="M871.8373,-635.9335C886.5443,-619.0614 905,-592.425 905,-565 905,-565 905,-565 905,-431.5 905,-395.6533 924.6672,-377.0099 900,-351 888.6736,-339.0571 763.7925,-346.2884 752.842,-334 731.5525,-310.1095 741.2883,-291.8414 752.842,-262 760.9817,-240.9763 787,-247.0444 787,-224.5 787,-224.5 787,-224.5 787,-157 787,-146.7128 729.2223,-132.4176 688.9853,-123.7096"/>
<polygon fill="#000000" stroke="#000000" points="689.6889,-120.281 679.1793,-121.6219 688.2312,-127.1276 689.6889,-120.281"/>
<text text-anchor="start" x="752" y="-295" font-family="Helvetica,sans-Serif" font-size="10.00" fill="#000000">SFA = &#39;1&#39; &#160;&#160;</text>
</g>
<!-- One&#45;&gt;Four -->
<g id="edge10" class="edge transition">
<title>One&#45;&gt;Four</title>
<path fill="none" stroke="#000000" d="M856.6666,-635.713C862.986,-589.4225 876.5791,-469.2111 852,-440 824.9982,-407.9097 795.397,-444.1493 759.181,-423 714.7141,-397.0324 702.5321,-382.4174 685,-334 674.105,-303.9118 667.888,-289.0403 685,-262 689.9966,-254.1043 695.5505,-256.9893 704,-253 711.551,-249.4349 716.5257,-252.0505 721,-245 726.001,-237.1196 725.8758,-231.9585 721,-224 717.6269,-218.4943 712.6812,-214.1085 707.1783,-210.6288"/>
<polygon fill="#000000" stroke="#000000" points="708.6924,-207.4701 698.2181,-205.8759 705.4121,-213.654 708.6924,-207.4701"/>
<text text-anchor="start" x="759" y="-384" font-family="Helvetica,sans-Serif" font-size="10.00" fill="#000000">SW = &#39;1&#39; &#160;&#160;</text>
</g>
<!-- One&#45;&gt;Five -->
<g id="edge11" class="edge transition">
<title>One&#45;&gt;Five</title>
<path fill="none" stroke="#000000" d="M825.6219,-638.8541C768.5192,-608.6296 641.1723,-542.5613 594,-529 561.4359,-519.6383 465.0608,-537.2593 442.477,-512 421.1483,-488.1445 425.4188,-467.0743 442.477,-440 451.8072,-425.1914 468.6698,-437.8086 478,-423 495.0582,-395.9257 498.684,-375.4166 478,-351 463.1467,-333.4663 398.4861,-338.7355 376,-334 340.881,-326.6041 301.3211,-316.3312 273.0625,-308.6516"/>
<polygon fill="#000000" stroke="#000000" points="273.7612,-305.2141 263.1919,-305.9497 271.913,-311.9657 273.7612,-305.2141"/>
<text text-anchor="start" x="442" y="-473" font-family="Helvetica,sans-Serif" font-size="10.00" fill="#000000">ST &lt; &quot;0110010&quot; &#160;&#160;</text>
</g>
<!-- One&#45;&gt;Six -->
<g id="edge12" class="edge transition">
<title>One&#45;&gt;Six</title>
<path fill="none" stroke="#000000" d="M825.7662,-650.7956C749.1501,-641.9324 541.2718,-616.7084 514.477,-601 479.3916,-580.4313 491.9805,-551.3469 458,-529 454.5333,-526.7202 352.2625,-500.3503 294.9739,-485.6885"/>
<polygon fill="#000000" stroke="#000000" points="295.7279,-482.2688 285.1724,-483.182 293.9935,-489.0505 295.7279,-482.2688"/>
<text text-anchor="start" x="514" y="-562" font-family="Helvetica,sans-Serif" font-size="10.00" fill="#000000">ST &gt; &quot;1000110&quot; &#160;&#160;</text>
</g>
<!-- Two&#45;&gt;Zero -->
<g id="edge21" class="edge transition">
<title>Two&#45;&gt;Zero</title>
<path fill="none" stroke="#000000" d="M600.3505,-34.9479C702.8245,-38.5584 1048,-52.3975 1048,-75 1048,-224.5 1048,-224.5 1048,-224.5 1048,-318.7442 1094,-337.2558 1094,-431.5 1094,-743 1094,-743 1094,-743 1094,-788.9844 1041.5827,-767.7328 997,-779 849.346,-816.316 667.3865,-827.5424 589.4146,-830.768"/>
<polygon fill="#000000" stroke="#000000" points="588.972,-827.2825 579.1169,-831.1719 589.2465,-834.2772 588.972,-827.2825"/>
<text text-anchor="start" x="1073" y="-325" font-family="Helvetica,sans-Serif" font-size="10.00" fill="#000000">not (SFA = &#39;1&#39;) &#160;&#160;</text>
<text text-anchor="start" x="1073" y="-313" font-family="Helvetica,sans-Serif" font-size="10.00" fill="#000000">not (SW = &#39;1&#39;) &#160;&#160;</text>
<text text-anchor="start" x="1073" y="-301" font-family="Helvetica,sans-Serif" font-size="10.00" fill="#000000">not (ST &lt; &quot;0110010&quot;) &#160;&#160;</text>
<text text-anchor="start" x="1073" y="-289" font-family="Helvetica,sans-Serif" font-size="10.00" fill="#000000">not (ST &gt; &quot;1000110&quot;) &#160;&#160;</text>
<text text-anchor="start" x="1073" y="-277" font-family="Helvetica,sans-Serif" font-size="10.00" fill="#000000">not (SFD = &#39;1&#39;) &#160;&#160;</text>
<text text-anchor="start" x="1073" y="-265" font-family="Helvetica,sans-Serif" font-size="10.00" fill="#000000">not (SRD = &#39;1&#39;) &#160;&#160;</text>
</g>
<!-- Two&#45;&gt;One -->
<g id="edge19" class="edge transition">
<title>Two&#45;&gt;One</title>
<path fill="none" stroke="#000000" d="M600.177,-35.5723C688.0111,-40.6579 951,-57.3582 951,-75 951,-224.5 951,-224.5 951,-224.5 951,-273.1687 945.6876,-285.7424 952,-334 957.8022,-378.3573 977,-386.7648 977,-431.5 977,-565 977,-565 977,-565 977,-607.5239 928.1498,-631.7973 892.0205,-643.9346"/>
<polygon fill="#000000" stroke="#000000" points="890.6939,-640.6834 882.2187,-647.0412 892.8088,-647.3563 890.6939,-640.6834"/>
<text text-anchor="start" x="950" y="-236" font-family="Helvetica,sans-Serif" font-size="10.00" fill="#000000">SFD = &#39;1&#39; &#160;&#160;</text>
</g>
<!-- Two&#45;&gt;Two -->
<g id="edge20" class="edge transition">
<title>Two&#45;&gt;Two</title>
<path fill="none" stroke="#000000" d="M600.0183,-38.8247C611.888,-39.1883 622,-37.5801 622,-34 622,-31.5387 617.2205,-30.0094 610.3762,-29.4121"/>
<polygon fill="#000000" stroke="#000000" points="610.0957,-25.9049 600.0183,-29.1753 609.9356,-32.903 610.0957,-25.9049"/>
<text text-anchor="start" x="622" y="-31" font-family="Helvetica,sans-Serif" font-size="10.00" fill="#000000">SRD = &#39;1&#39; &#160;&#160;</text>
</g>
<!-- Two&#45;&gt;Three -->
<g id="edge15" class="edge transition">
<title>Two&#45;&gt;Three</title>
<path fill="none" stroke="#000000" d="M600.0748,-38.491C617.9543,-42.9618 639.7911,-51.7744 651,-69 654.5631,-74.4757 655.8975,-81.1234 656.0487,-87.6745"/>
<polygon fill="#000000" stroke="#000000" points="652.5519,-87.5201 655.4628,-97.7072 659.54,-87.9283 652.5519,-87.5201"/>
<text text-anchor="start" x="655" y="-72" font-family="Helvetica,sans-Serif" font-size="10.00" fill="#000000">SFA = &#39;1&#39; &#160;&#160;</text>
</g>
<!-- Two&#45;&gt;Four -->
<g id="edge16" class="edge transition">
<title>Two&#45;&gt;Four</title>
<path fill="none" stroke="#000000" d="M600.0648,-38.6703C628.3149,-43.9434 672.774,-53.8203 709,-69 731.988,-78.6326 736.263,-84.172 757,-98 758.7195,-99.1466 816.0658,-140.1564 817,-142 827.8106,-163.3338 755.0188,-181.6888 707.9613,-191.1548"/>
<polygon fill="#000000" stroke="#000000" points="707.203,-187.7367 698.0616,-193.0926 708.5478,-194.6064 707.203,-187.7367"/>
<text text-anchor="start" x="806" y="-113" font-family="Helvetica,sans-Serif" font-size="10.00" fill="#000000">SW = &#39;1&#39; &#160;&#160;</text>
</g>
<!-- Two&#45;&gt;Five -->
<g id="edge17" class="edge transition">
<title>Two&#45;&gt;Five</title>
<path fill="none" stroke="#000000" d="M543.8625,-35.2748C473.7743,-38.8241 297,-50.2311 297,-75 297,-142.5 297,-142.5 297,-142.5 297,-190.4362 271.2634,-241.152 252.9538,-271.1671"/>
<polygon fill="#000000" stroke="#000000" points="249.8932,-269.4598 247.5466,-279.7916 255.824,-273.1782 249.8932,-269.4598"/>
<text text-anchor="start" x="296" y="-154" font-family="Helvetica,sans-Serif" font-size="10.00" fill="#000000">ST &lt; &quot;0110010&quot; &#160;&#160;</text>
</g>
<!-- Two&#45;&gt;Six -->
<g id="edge18" class="edge transition">
<title>Two&#45;&gt;Six</title>
<path fill="none" stroke="#000000" d="M543.8016,-35.3051C450.3962,-39.8122 157,-55.52 157,-75 157,-171.5 157,-171.5 157,-171.5 157,-198.8261 132.386,-197.691 125,-224 122.4744,-232.9961 123.8563,-235.9053 126,-245 135.9078,-287.0348 136.5536,-301.5056 165,-334 174.5895,-344.9541 183.9917,-339.5632 193,-351 213.7862,-377.3899 200.3739,-393.2625 216,-423 220.9513,-432.4227 227.601,-441.8805 234.1024,-450.1444"/>
<polygon fill="#000000" stroke="#000000" points="231.4511,-452.4313 240.486,-457.9649 236.8739,-448.0048 231.4511,-452.4313"/>
<text text-anchor="start" x="155" y="-195" font-family="Helvetica,sans-Serif" font-size="10.00" fill="#000000">ST &gt; &quot;1000110&quot; &#160;&#160;</text>
</g>
<!-- Three&#45;&gt;Zero -->
<g id="edge28" class="edge transition">
<title>Three&#45;&gt;Zero</title>
<path fill="none" stroke="#000000" d="M622.7913,-132.0134C620.8651,-132.7689 618.9246,-133.4427 617,-134 572.4702,-146.8933 559.2121,-138.3148 513,-142 464.5445,-145.8641 450.8089,-137.8932 404,-151 392.516,-154.2156 391.3083,-159.2125 380,-163 340.5716,-176.2057 325.062,-161.1481 288,-180 267.2639,-190.5475 271.0253,-206.0415 250,-216 217.1491,-231.5597 196.771,-208.4115 170,-233 130.6851,-269.1098 139.5722,-293.3264 105,-334 97.6921,-342.5977 91.6024,-341.1247 86.143,-351 29.7161,-453.0686 41,-492.8724 41,-609.5 41,-743 41,-743 41,-743 41,-766.9176 59.1861,-769.1916 81,-779 158.0462,-813.643 414.8506,-826.8357 512.6924,-830.6799"/>
<polygon fill="#000000" stroke="#000000" points="512.6118,-834.1793 522.7381,-831.0635 512.8789,-827.1844 512.6118,-834.1793"/>
<text text-anchor="start" x="86" y="-414" font-family="Helvetica,sans-Serif" font-size="10.00" fill="#000000">not (SW = &#39;1&#39;) &#160;&#160;</text>
<text text-anchor="start" x="86" y="-402" font-family="Helvetica,sans-Serif" font-size="10.00" fill="#000000">not (ST &lt; &quot;0110010&quot;) &#160;&#160;</text>
<text text-anchor="start" x="86" y="-390" font-family="Helvetica,sans-Serif" font-size="10.00" fill="#000000">not (ST &gt; &quot;1000110&quot;) &#160;&#160;</text>
<text text-anchor="start" x="86" y="-378" font-family="Helvetica,sans-Serif" font-size="10.00" fill="#000000">not (SFD = &#39;1&#39;) &#160;&#160;</text>
<text text-anchor="start" x="86" y="-366" font-family="Helvetica,sans-Serif" font-size="10.00" fill="#000000">not (SRD = &#39;1&#39;) &#160;&#160;</text>
<text text-anchor="start" x="86" y="-354" font-family="Helvetica,sans-Serif" font-size="10.00" fill="#000000">not (SFA = &#39;1&#39;) &#160;&#160;</text>
</g>
<!-- Three&#45;&gt;One -->
<g id="edge25" class="edge transition">
<title>Three&#45;&gt;One</title>
<path fill="none" stroke="#000000" d="M679.2365,-120.3484C725.1693,-127.8126 811,-143.5585 811,-157 811,-224.5 811,-224.5 811,-224.5 811,-275.6319 809.0922,-298.9194 846.292,-334 868.2379,-354.6957 891.1558,-329.1951 912,-351 937.2678,-377.4325 929,-394.9331 929,-431.5 929,-565 929,-565 929,-565 929,-591.3437 909.5477,-613.9383 890.4564,-629.7698"/>
<polygon fill="#000000" stroke="#000000" points="888.0577,-627.2032 882.3543,-636.1319 892.3809,-632.7087 888.0577,-627.2032"/>
<text text-anchor="start" x="846" y="-295" font-family="Helvetica,sans-Serif" font-size="10.00" fill="#000000">SFD = &#39;1&#39; &#160;&#160;</text>
</g>
<!-- Three&#45;&gt;Two -->
<g id="edge26" class="edge transition">
<title>Three&#45;&gt;Two</title>
<path fill="none" stroke="#000000" d="M622.9064,-102.4746C613.246,-96.8306 602.9245,-89.5741 595.182,-81 590.1838,-75.465 586.0097,-68.656 582.6444,-61.9562"/>
<polygon fill="#000000" stroke="#000000" points="585.6155,-60.0346 578.2907,-52.3797 579.2432,-62.9316 585.6155,-60.0346"/>
<text text-anchor="start" x="595" y="-72" font-family="Helvetica,sans-Serif" font-size="10.00" fill="#000000">SRD = &#39;1&#39; &#160;&#160;</text>
</g>
<!-- Three&#45;&gt;Three -->
<g id="edge27" class="edge transition">
<title>Three&#45;&gt;Three</title>
<path fill="none" stroke="#000000" d="M679.0183,-120.8247C690.888,-121.1883 701,-119.5801 701,-116 701,-113.5387 696.2205,-112.0094 689.3762,-111.4121"/>
<polygon fill="#000000" stroke="#000000" points="689.0957,-107.9049 679.0183,-111.1753 688.9356,-114.903 689.0957,-107.9049"/>
<text text-anchor="start" x="701" y="-113" font-family="Helvetica,sans-Serif" font-size="10.00" fill="#000000">SFA = &#39;1&#39; &#160;&#160;</text>
</g>
<!-- Three&#45;&gt;Four -->
<g id="edge22" class="edge transition">
<title>Three&#45;&gt;Four</title>
<path fill="none" stroke="#000000" d="M669.2947,-134.1826C673.256,-139.2239 676.8879,-144.9788 679,-151 681.0788,-156.9263 681.1452,-163.4508 680.2063,-169.7035"/>
<polygon fill="#000000" stroke="#000000" points="676.7107,-169.2834 677.8551,-179.8162 683.5289,-170.8686 676.7107,-169.2834"/>
<text text-anchor="start" x="680" y="-154" font-family="Helvetica,sans-Serif" font-size="10.00" fill="#000000">SW = &#39;1&#39; &#160;&#160;</text>
</g>
<!-- Three&#45;&gt;Five -->
<g id="edge23" class="edge transition">
<title>Three&#45;&gt;Five</title>
<path fill="none" stroke="#000000" d="M622.7629,-131.9191C620.8437,-132.6976 618.9125,-133.4024 617,-134 588.3757,-142.9446 578.3811,-132.3114 550,-142 518.8658,-152.6285 514.4669,-162.7121 486.477,-180 461.1516,-195.6422 457.747,-205.2223 430,-216 389.2015,-231.8473 373.6529,-216.783 333,-233 319.5481,-238.3661 290.9069,-257.7483 268.0437,-273.9631"/>
<polygon fill="#000000" stroke="#000000" points="265.7122,-271.3272 259.6078,-279.9866 269.78,-277.024 265.7122,-271.3272"/>
<text text-anchor="start" x="486" y="-195" font-family="Helvetica,sans-Serif" font-size="10.00" fill="#000000">ST &lt; &quot;0110010&quot; &#160;&#160;</text>
</g>
<!-- Three&#45;&gt;Six -->
<g id="edge24" class="edge transition">
<title>Three&#45;&gt;Six</title>
<path fill="none" stroke="#000000" d="M622.7807,-131.9775C620.8571,-132.7418 618.9201,-133.4274 617,-134 580.2138,-144.9706 569.2209,-138.4307 531,-142 488.3319,-145.9846 476.6559,-140.9388 435,-151 421.041,-154.3715 418.6992,-158.6924 405,-163 373.2214,-172.9925 361.8067,-165.1241 332,-180 309.6986,-191.1302 311.6724,-205.6465 289,-216 245.7885,-235.7328 214.2804,-196.837 183.477,-233 154.1464,-267.4341 173.7201,-294.6351 196,-334 201.9148,-344.4505 210.2198,-341.0891 217,-351 237.2168,-380.5515 247.6857,-420.9223 252.7564,-447.6953"/>
<polygon fill="#000000" stroke="#000000" points="249.3163,-448.3414 254.5006,-457.5811 256.2098,-447.1251 249.3163,-448.3414"/>
<text text-anchor="start" x="183" y="-236" font-family="Helvetica,sans-Serif" font-size="10.00" fill="#000000">ST &gt; &quot;1000110&quot; &#160;&#160;</text>
</g>
<!-- Four&#45;&gt;Zero -->
<g id="edge35" class="edge transition">
<title>Four&#45;&gt;Zero</title>
<path fill="none" stroke="#000000" d="M670.1399,-216.1049C669.9316,-219.0958 669.576,-222.1494 669,-225 665.5177,-242.234 659.9421,-245.1266 655,-262 634.4431,-332.1852 653.9505,-357.7098 621,-423 618.5887,-427.7778 617.6348,-429.3241 613,-432 597.7303,-440.816 585.2829,-426.3329 574.143,-440 553.9254,-464.8042 559.4843,-483.5549 574.143,-512 580.1071,-523.5733 590.3675,-518.4522 598,-529 619.9621,-559.3508 623,-572.0366 623,-609.5 623,-743 623,-743 623,-743 623,-768.9114 604.3258,-791.5139 585.9982,-807.4574"/>
<polygon fill="#000000" stroke="#000000" points="583.7075,-804.8098 578.2201,-813.8729 588.1616,-810.2099 583.7075,-804.8098"/>
<text text-anchor="start" x="574" y="-503" font-family="Helvetica,sans-Serif" font-size="10.00" fill="#000000">not (ST &lt; &quot;0110010&quot;) &#160;&#160;</text>
<text text-anchor="start" x="574" y="-491" font-family="Helvetica,sans-Serif" font-size="10.00" fill="#000000">not (ST &gt; &quot;1000110&quot;) &#160;&#160;</text>
<text text-anchor="start" x="574" y="-479" font-family="Helvetica,sans-Serif" font-size="10.00" fill="#000000">not (SFD = &#39;1&#39;) &#160;&#160;</text>
<text text-anchor="start" x="574" y="-467" font-family="Helvetica,sans-Serif" font-size="10.00" fill="#000000">not (SRD = &#39;1&#39;) &#160;&#160;</text>
<text text-anchor="start" x="574" y="-455" font-family="Helvetica,sans-Serif" font-size="10.00" fill="#000000">not (SFA = &#39;1&#39;) &#160;&#160;</text>
<text text-anchor="start" x="574" y="-443" font-family="Helvetica,sans-Serif" font-size="10.00" fill="#000000">not (SW = &#39;1&#39;) &#160;&#160;</text>
</g>
<!-- Four&#45;&gt;One -->
<g id="edge31" class="edge transition">
<title>Four&#45;&gt;One</title>
<path fill="none" stroke="#000000" d="M698.2171,-204.4823C708.889,-208.3718 720.1103,-214.4858 727,-224 732.4804,-231.568 731.8139,-236.4699 728,-245 723.375,-255.3443 713.625,-251.6557 709,-262 695.9386,-291.213 688.4181,-309.4972 709,-334 737.151,-367.5138 769.9128,-326.2337 806,-351 836.7864,-372.1284 826.8844,-393.1318 849.292,-423 855.4654,-431.2289 860.8373,-430.5927 865,-440 892.397,-501.9144 875.2807,-583.9526 863.0951,-626.2105"/>
<polygon fill="#000000" stroke="#000000" points="859.7339,-625.2342 860.2091,-635.8184 866.438,-627.248 859.7339,-625.2342"/>
<text text-anchor="start" x="849" y="-384" font-family="Helvetica,sans-Serif" font-size="10.00" fill="#000000">SFD = &#39;1&#39; &#160;&#160;</text>
</g>
<!-- Four&#45;&gt;Two -->
<g id="edge32" class="edge transition">
<title>Four&#45;&gt;Two</title>
<path fill="none" stroke="#000000" d="M641.8921,-190.2795C615.7346,-181.4286 578.2943,-164.1057 561.182,-134 548.7236,-112.082 553.7581,-83.0803 560.5173,-61.956"/>
<polygon fill="#000000" stroke="#000000" points="563.9024,-62.8791 563.9048,-52.2843 557.2959,-60.5651 563.9024,-62.8791"/>
<text text-anchor="start" x="561" y="-113" font-family="Helvetica,sans-Serif" font-size="10.00" fill="#000000">SRD = &#39;1&#39; &#160;&#160;</text>
</g>
<!-- Four&#45;&gt;Three -->
<g id="edge33" class="edge transition">
<title>Four&#45;&gt;Three</title>
<path fill="none" stroke="#000000" d="M641.6735,-182.3292C634.9245,-177.123 628.5963,-170.6598 624.842,-163 621.5643,-156.3127 622.8673,-149.2307 626.2152,-142.6489"/>
<polygon fill="#000000" stroke="#000000" points="629.2802,-144.3563 631.8097,-134.0678 623.4163,-140.5333 629.2802,-144.3563"/>
<text text-anchor="start" x="624" y="-154" font-family="Helvetica,sans-Serif" font-size="10.00" fill="#000000">SFA = &#39;1&#39; &#160;&#160;</text>
</g>
<!-- Four&#45;&gt;Four -->
<g id="edge34" class="edge transition">
<title>Four&#45;&gt;Four</title>
<path fill="none" stroke="#000000" d="M698.0183,-202.8247C709.888,-203.1883 720,-201.5801 720,-198 720,-195.5387 715.2205,-194.0094 708.3762,-193.4121"/>
<polygon fill="#000000" stroke="#000000" points="708.0957,-189.9049 698.0183,-193.1753 707.9356,-196.903 708.0957,-189.9049"/>
<text text-anchor="start" x="720" y="-195" font-family="Helvetica,sans-Serif" font-size="10.00" fill="#000000">SW = &#39;1&#39; &#160;&#160;</text>
</g>
<!-- Four&#45;&gt;Five -->
<g id="edge29" class="edge transition">
<title>Four&#45;&gt;Five</title>
<path fill="none" stroke="#000000" d="M641.7485,-202.4562C593.8295,-210.0782 498.5947,-225.5182 465.477,-233 396.8614,-248.5014 318.2638,-271.907 272.8544,-285.9965"/>
<polygon fill="#000000" stroke="#000000" points="271.6443,-282.7075 263.1396,-289.0259 273.7282,-289.3902 271.6443,-282.7075"/>
<text text-anchor="start" x="465" y="-236" font-family="Helvetica,sans-Serif" font-size="10.00" fill="#000000">ST &lt; &quot;0110010&quot; &#160;&#160;</text>
</g>
<!-- Four&#45;&gt;Six -->
<g id="edge30" class="edge transition">
<title>Four&#45;&gt;Six</title>
<path fill="none" stroke="#000000" d="M666.3354,-216.3146C663.3639,-226.3362 658.1139,-238.0862 649,-245 628.5022,-260.5496 551.2811,-242.5173 534.477,-262 513.5767,-286.2318 513.4658,-309.8644 534.477,-334 542.951,-343.7341 579.8299,-337.7045 592,-342 599.3313,-344.5876 603.1695,-344.2345 607,-351 624.7372,-382.3272 631.9643,-406.0619 607,-432 598.9424,-440.372 409.4992,-438.3312 398,-440 362.4827,-445.1544 322.9666,-455.6734 294.8258,-464.0162"/>
<polygon fill="#000000" stroke="#000000" points="293.5657,-460.7404 285.0013,-466.9775 295.5859,-467.4426 293.5657,-460.7404"/>
<text text-anchor="start" x="534" y="-295" font-family="Helvetica,sans-Serif" font-size="10.00" fill="#000000">ST &gt; &quot;1000110&quot; &#160;&#160;</text>
</g>
<!-- Five&#45;&gt;Zero -->
<g id="edge42" class="edge transition">
<title>Five&#45;&gt;Zero</title>
<path fill="none" stroke="#000000" d="M233.0081,-316.397C232.1119,-324.55 231.0266,-334.2562 230,-343 224.9347,-386.1434 221.8207,-396.7286 218,-440 211.3649,-515.1471 209,-534.0605 209,-609.5 209,-743 209,-743 209,-743 209,-805.188 423.4637,-824.6948 512.7286,-830.1207"/>
<polygon fill="#000000" stroke="#000000" points="512.5357,-833.6153 522.7217,-830.7007 512.9414,-826.627 512.5357,-833.6153"/>
<text text-anchor="start" x="210" y="-592" font-family="Helvetica,sans-Serif" font-size="10.00" fill="#000000">not (SFD = &#39;1&#39;) &#160;&#160;</text>
<text text-anchor="start" x="210" y="-580" font-family="Helvetica,sans-Serif" font-size="10.00" fill="#000000">not (SRD = &#39;1&#39;) &#160;&#160;</text>
<text text-anchor="start" x="210" y="-568" font-family="Helvetica,sans-Serif" font-size="10.00" fill="#000000">not (SFA = &#39;1&#39;) &#160;&#160;</text>
<text text-anchor="start" x="210" y="-556" font-family="Helvetica,sans-Serif" font-size="10.00" fill="#000000">not (SW = &#39;1&#39;) &#160;&#160;</text>
<text text-anchor="start" x="210" y="-544" font-family="Helvetica,sans-Serif" font-size="10.00" fill="#000000">not (ST &lt; &quot;0110010&quot;) &#160;&#160;</text>
<text text-anchor="start" x="210" y="-532" font-family="Helvetica,sans-Serif" font-size="10.00" fill="#000000">not (ST &gt; &quot;1000110&quot;) &#160;&#160;</text>
</g>
<!-- Five&#45;&gt;One -->
<g id="edge36" class="edge transition">
<title>Five&#45;&gt;One</title>
<path fill="none" stroke="#000000" d="M263.2896,-301.9092C307.4537,-308.3318 395.2628,-322.3895 468,-342 499.5217,-350.4985 720.4529,-418.476 745,-440 803.3137,-491.1321 834.4324,-580.9407 847.0892,-626.2254"/>
<polygon fill="#000000" stroke="#000000" points="843.7309,-627.2149 849.7149,-635.958 850.4892,-625.3915 843.7309,-627.2149"/>
<text text-anchor="start" x="800" y="-473" font-family="Helvetica,sans-Serif" font-size="10.00" fill="#000000">SFD = &#39;1&#39; &#160;&#160;</text>
</g>
<!-- Five&#45;&gt;Two -->
<g id="edge37" class="edge transition">
<title>Five&#45;&gt;Two</title>
<path fill="none" stroke="#000000" d="M206.8336,-283.2713C178.0054,-268.1446 137.236,-246.5856 136,-245 130.367,-237.7737 132.1195,-234.0938 131,-225 130.9457,-224.5589 130.6973,-224.3255 131,-224 147.6901,-206.052 224.3099,-233.948 241,-216 251.8957,-204.2832 247.2675,-194.7213 241,-180 231.5806,-157.8754 202,-166.5463 202,-142.5 202,-142.5 202,-142.5 202,-75 202,-58.4337 439.408,-42.1001 533.8839,-36.2561"/>
<polygon fill="#000000" stroke="#000000" points="534.1188,-39.7483 543.8862,-35.6436 533.6909,-32.7614 534.1188,-39.7483"/>
<text text-anchor="start" x="220" y="-154" font-family="Helvetica,sans-Serif" font-size="10.00" fill="#000000">SRD = &#39;1&#39; &#160;&#160;</text>
</g>
<!-- Five&#45;&gt;Three -->
<g id="edge38" class="edge transition">
<title>Five&#45;&gt;Three</title>
<path fill="none" stroke="#000000" d="M252.3575,-279.8938C266.1372,-266.0877 286.2985,-247.1084 306,-233 318.7756,-223.8513 324.2526,-225.1878 337,-216 356.0946,-202.2374 355.0314,-190.9971 375.842,-180 392.5865,-171.1516 523.3203,-145.121 542,-142 571.9644,-136.9936 582.8854,-142.5372 612.8267,-134.8009"/>
<polygon fill="#000000" stroke="#000000" points="614.1248,-138.0697 622.7716,-131.9472 612.1941,-131.3412 614.1248,-138.0697"/>
<text text-anchor="start" x="375" y="-195" font-family="Helvetica,sans-Serif" font-size="10.00" fill="#000000">SFA = &#39;1&#39; &#160;&#160;</text>
</g>
<!-- Five&#45;&gt;Four -->
<g id="edge39" class="edge transition">
<title>Five&#45;&gt;Four</title>
<path fill="none" stroke="#000000" d="M263.1483,-282.7647C295.6058,-265.4666 347.1829,-238.8767 368.181,-233 447.6172,-210.7684 471.1265,-226.0539 553,-216 579.3568,-212.7634 608.9135,-208.2085 631.7255,-204.4906"/>
<polygon fill="#000000" stroke="#000000" points="632.3978,-207.9271 641.6963,-202.849 631.2605,-201.0201 632.3978,-207.9271"/>
<text text-anchor="start" x="368" y="-236" font-family="Helvetica,sans-Serif" font-size="10.00" fill="#000000">SW = &#39;1&#39; &#160;&#160;</text>
</g>
<!-- Five&#45;&gt;Five -->
<g id="edge40" class="edge transition">
<title>Five&#45;&gt;Five</title>
<path fill="none" stroke="#000000" d="M263.0183,-306.1649C274.888,-306.7802 285,-304.0586 285,-298 285,-293.8347 280.2205,-291.2467 273.3762,-290.2359"/>
<polygon fill="#000000" stroke="#000000" points="273.1461,-286.7244 263.0183,-289.8351 272.8754,-293.7192 273.1461,-286.7244"/>
<text text-anchor="start" x="285" y="-295" font-family="Helvetica,sans-Serif" font-size="10.00" fill="#000000">ST &lt; &quot;0110010&quot; &#160;&#160;</text>
</g>
<!-- Five&#45;&gt;Six -->
<g id="edge41" class="edge transition">
<title>Five&#45;&gt;Six</title>
<path fill="none" stroke="#000000" d="M261.7864,-316.149C272.5853,-325.1728 283.7248,-337.1252 289,-351 301.7937,-384.65 300.1328,-397.7646 289,-432 287.0064,-438.1305 283.8014,-444.1196 280.1726,-449.6069"/>
<polygon fill="#000000" stroke="#000000" points="277.2897,-447.6202 274.2344,-457.765 282.9492,-451.7397 277.2897,-447.6202"/>
<text text-anchor="start" x="297" y="-384" font-family="Helvetica,sans-Serif" font-size="10.00" fill="#000000">ST &gt; &quot;1000110&quot; &#160;&#160;</text>
</g>
<!-- Six&#45;&gt;Zero -->
<g id="edge49" class="edge transition">
<title>Six&#45;&gt;Zero</title>
<path fill="none" stroke="#000000" d="M285.2347,-493.0646C307.2105,-508.7275 334,-534.1483 334,-565 334,-743 334,-743 334,-743 334,-781.1861 450.4806,-811.1912 512.7627,-824.5055"/>
<polygon fill="#000000" stroke="#000000" points="512.1259,-827.948 522.631,-826.5725 513.561,-821.0967 512.1259,-827.948"/>
<text text-anchor="start" x="334" y="-681" font-family="Helvetica,sans-Serif" font-size="10.00" fill="#000000">not (SFD = &#39;1&#39;) &#160;&#160;</text>
<text text-anchor="start" x="334" y="-669" font-family="Helvetica,sans-Serif" font-size="10.00" fill="#000000">not (SRD = &#39;1&#39;) &#160;&#160;</text>
<text text-anchor="start" x="334" y="-657" font-family="Helvetica,sans-Serif" font-size="10.00" fill="#000000">not (SFA = &#39;1&#39;) &#160;&#160;</text>
<text text-anchor="start" x="334" y="-645" font-family="Helvetica,sans-Serif" font-size="10.00" fill="#000000">not (SW = &#39;1&#39;) &#160;&#160;</text>
<text text-anchor="start" x="334" y="-633" font-family="Helvetica,sans-Serif" font-size="10.00" fill="#000000">not (ST &lt; &quot;0110010&quot;) &#160;&#160;</text>
<text text-anchor="start" x="334" y="-621" font-family="Helvetica,sans-Serif" font-size="10.00" fill="#000000">not (ST &gt; &quot;1000110&quot;) &#160;&#160;</text>
</g>
<!-- Six&#45;&gt;One -->
<g id="edge43" class="edge transition">
<title>Six&#45;&gt;One</title>
<path fill="none" stroke="#000000" d="M285.0841,-481.6485C308.6479,-487.6485 341.9046,-499.2235 364,-520 393.1494,-547.4094 370.5484,-578.004 403.292,-601 432.6805,-621.6397 528.3228,-613.8989 564,-618 654.2019,-628.3687 760.015,-641.8341 815.5287,-648.9991"/>
<polygon fill="#000000" stroke="#000000" points="815.2515,-652.4923 825.6177,-650.3034 816.149,-645.5501 815.2515,-652.4923"/>
<text text-anchor="start" x="403" y="-562" font-family="Helvetica,sans-Serif" font-size="10.00" fill="#000000">SFD = &#39;1&#39; &#160;&#160;</text>
</g>
<!-- Six&#45;&gt;Two -->
<g id="edge44" class="edge transition">
<title>Six&#45;&gt;Two</title>
<path fill="none" stroke="#000000" d="M228.8002,-472.6473C179.2021,-466.1076 79.6373,-449.888 59,-423 39.5164,-397.6152 42.0204,-378.1237 59,-351 68.1761,-336.3418 84.8239,-348.6582 94,-334 133.0579,-271.6077 62,-245.1092 62,-171.5 62,-171.5 62,-171.5 62,-75 62,-51.342 415.2907,-38.6634 533.7829,-35.0764"/>
<polygon fill="#000000" stroke="#000000" points="533.9624,-38.5727 543.8537,-34.7764 533.7539,-31.5758 533.9624,-38.5727"/>
<text text-anchor="start" x="70" y="-195" font-family="Helvetica,sans-Serif" font-size="10.00" fill="#000000">SRD = &#39;1&#39; &#160;&#160;</text>
</g>
<!-- Six&#45;&gt;Three -->
<g id="edge45" class="edge transition">
<title>Six&#45;&gt;Three</title>
<path fill="none" stroke="#000000" d="M285.4022,-470.1603C343.7069,-458.0407 471.9687,-430.6488 478,-423 497.8141,-397.8723 491.0188,-380.232 478,-351 475.5674,-345.5378 473.1261,-345.0783 468,-342 459.0805,-336.6438 451.9688,-342.5217 446,-334 427.6417,-307.7898 425.3922,-286.481 446,-262 474.7505,-227.846 507.0883,-268.5751 545,-245 558.5136,-236.5967 557.0199,-229.1374 566,-216 579.4269,-196.3571 580.5687,-189.9172 595,-171 605.4993,-157.237 608.6571,-154.137 621,-142 621.3317,-141.6738 621.6668,-141.3468 622.0048,-141.0191"/>
<polygon fill="#000000" stroke="#000000" points="624.4589,-143.5165 629.3982,-134.1434 619.6918,-138.3905 624.4589,-143.5165"/>
<text text-anchor="start" x="556" y="-236" font-family="Helvetica,sans-Serif" font-size="10.00" fill="#000000">SFA = &#39;1&#39; &#160;&#160;</text>
</g>
<!-- Six&#45;&gt;Four -->
<g id="edge46" class="edge transition">
<title>Six&#45;&gt;Four</title>
<path fill="none" stroke="#000000" d="M285.0074,-467.0196C313.2114,-458.4124 358.1354,-445.8863 398,-440 408.177,-438.4973 575.8846,-439.4298 583,-432 607.8999,-406.0001 596.7766,-384.2597 583,-351 580.8352,-345.7737 579.1417,-344.3586 574,-342 552.3637,-332.0752 483.3723,-351.4492 467.181,-334 445.4149,-310.5428 445.8589,-285.8614 467.181,-262 478.9327,-248.8487 609.1549,-252.7455 625,-245 634.8953,-240.1629 643.7806,-232.1928 650.9899,-224.1777"/>
<polygon fill="#000000" stroke="#000000" points="653.8809,-226.1768 657.6158,-216.2621 648.5132,-221.6837 653.8809,-226.1768"/>
<text text-anchor="start" x="467" y="-295" font-family="Helvetica,sans-Serif" font-size="10.00" fill="#000000">SW = &#39;1&#39; &#160;&#160;</text>
</g>
<!-- Six&#45;&gt;Five -->
<g id="edge47" class="edge transition">
<title>Six&#45;&gt;Five</title>
<path fill="none" stroke="#000000" d="M285.0681,-472.8459C314.6332,-467.8601 359.7836,-455.1414 381,-423 398.6287,-396.2937 399.3655,-377.2051 381,-351 368.3205,-332.9081 312.0582,-316.2629 273.1996,-306.6244"/>
<polygon fill="#000000" stroke="#000000" points="273.7856,-303.1652 263.2426,-304.2123 272.1375,-309.9684 273.7856,-303.1652"/>
<text text-anchor="start" x="394" y="-384" font-family="Helvetica,sans-Serif" font-size="10.00" fill="#000000">ST &lt; &quot;0110010&quot; &#160;&#160;</text>
</g>
<!-- Six&#45;&gt;Six -->
<g id="edge48" class="edge transition">
<title>Six&#45;&gt;Six</title>
<path fill="none" stroke="#000000" d="M285.0183,-484.1649C296.888,-484.7802 307,-482.0586 307,-476 307,-471.8347 302.2205,-469.2467 295.3762,-468.2359"/>
<polygon fill="#000000" stroke="#000000" points="295.1461,-464.7244 285.0183,-467.8351 294.8754,-471.7192 295.1461,-464.7244"/>
<text text-anchor="start" x="307" y="-473" font-family="Helvetica,sans-Serif" font-size="10.00" fill="#000000">ST &gt; &quot;1000110&quot; &#160;&#160;</text>
</g>
</g>
</svg>
